<?xml version="1.0" encoding="UTF-8" standalone="no"?><!DOCTYPE svg PUBLIC "-//W3C//DTD SVG 1.1//EN" "http://www.w3.org/Graphics/SVG/1.1/DTD/svg11.dtd"><svg width="100%" height="100%" viewBox="0 0 1024 1024" version="1.1" xmlns="http://www.w3.org/2000/svg" xmlns:xlink="http://www.w3.org/1999/xlink" xml:space="preserve" xmlns:serif="http://www.serif.com/" style="fill-rule:evenodd;clip-rule:evenodd;stroke-linecap:round;stroke-linejoin:round;stroke-miterlimit:1.5;"><g id="Slate-Group" serif:id="Slate Group"><path id="Outer-Slate-Rectangle" serif:id="Outer Slate Rectangle" d="M991.798,343.106l0,649.374c0,2.635 -2.14,4.775 -4.775,4.775l-930.107,0c-2.635,0 -4.775,-2.14 -4.775,-4.775l0,-649.374c0,-2.635 2.14,-4.775 4.775,-4.775l930.107,0c2.635,0 4.775,2.14 4.775,4.775Z" style="fill:#282828;"/><g id="Slate-Lines-Group" serif:id="Slate Lines Group"><path id="Bottom-Vertical-Line" serif:id="Bottom Vertical Line" d="M521.969,806.835l0,155.64" style="fill:none;stroke:#c8c8c8;stroke-width:5px;"/><path id="Bottom-Horizontal-Line" serif:id="Bottom Horizontal Line" d="M120.023,806.835l803.893,0" style="fill:none;stroke:#c8c8c8;stroke-width:5px;"/><path id="Middle-Horizontal-Line" serif:id="Middle Horizontal Line" d="M120.023,667.195l803.893,0" style="fill:none;stroke:#c8c8c8;stroke-width:5px;"/><path id="Top-Horizontal-Line" serif:id="Top Horizontal Line" d="M120.023,527.556l803.893,0" style="fill:none;stroke:#c8c8c8;stroke-width:5px;"/></g></g><g id="Clapper-Sticks" serif:id="Clapper Sticks"><g id="Bottom-Clapper-Stick-Group" serif:id="Bottom Clapper Stick Group"><path id="Outer-Clapper-Stick-Rectangle" serif:id="Outer Clapper Stick Rectangle" d="M991.798,306.039l0,114.966c0,0.467 -0.379,0.845 -0.845,0.845l-937.966,0c-0.467,0 -0.845,-0.379 -0.845,-0.845l0,-114.966c0,-0.467 0.379,-0.845 0.845,-0.845l937.966,0c0.467,0 0.845,0.379 0.845,0.845Z" style="fill:#282828;stroke:#282828;stroke-width:1px;"/><path id="Left-Stripe-Rectangle" serif:id="Left Stripe Rectangle" d="M287.055,306.039l0,114.966c0,0.467 -0.379,0.845 -0.845,0.845l-115.766,0c-0.467,0 -0.845,-0.379 -0.845,-0.845l0,-114.966c0,-0.467 0.379,-0.845 0.845,-0.845l115.766,0c0.467,0 0.845,0.379 0.845,0.845Z" style="fill:#c8c8c8;stroke:#c8c8c8;stroke-width:1px;"/><path id="Middle-Stripe-Rectangle" serif:id="Middle Stripe Rectangle" d="M580.698,306.039l0,114.966c0,0.467 -0.379,0.845 -0.845,0.845l-115.766,0c-0.467,0 -0.845,-0.379 -0.845,-0.845l0,-114.966c0,-0.467 0.379,-0.845 0.845,-0.845l115.766,0c0.467,0 0.845,0.379 0.845,0.845Z" style="fill:#c8c8c8;stroke:#c8c8c8;stroke-width:1px;"/><path id="Right-Stripe-Rectangle" serif:id="Right Stripe Rectangle" d="M874.341,306.039l0,114.966c0,0.467 -0.379,0.845 -0.845,0.845l-115.766,0c-0.467,0 -0.845,-0.379 -0.845,-0.845l0,-114.966c0,-0.467 0.379,-0.845 0.845,-0.845l115.766,0c0.467,0 0.845,0.379 0.845,0.845Z" style="fill:#c8c8c8;stroke:#c8c8c8;stroke-width:1px;"/></g><g id="Top-Clapper-Stick-Group" serif:id="Top Clapper Stick Group"><path id="Outer-Clapper-Stick-Rectangle1" serif:id="Outer Clapper Stick Rectangle" d="M957.596,27.444l19.964,113.22c0.081,0.459 -0.226,0.898 -0.686,0.979l-923.716,162.876c-0.459,0.081 -0.898,-0.226 -0.979,-0.686l-19.964,-113.22c-0.081,-0.459 0.226,-0.898 0.686,-0.979l923.716,-162.876c0.459,-0.081 0.898,0.226 0.979,0.686Z" style="fill:#282828;stroke:#282828;stroke-width:1px;"/><path id="Left-Stripe-Rectangle1" serif:id="Left Stripe Rectangle" d="M263.56,149.821l19.964,113.22c0.081,0.459 -0.226,0.898 -0.686,0.979l-114.008,20.103c-0.459,0.081 -0.898,-0.226 -0.979,-0.686l-19.964,-113.22c-0.081,-0.459 0.226,-0.898 0.686,-0.979l114.008,-20.103c0.459,-0.081 0.898,0.226 0.979,0.686Z" style="fill:#c8c8c8;stroke:#c8c8c8;stroke-width:1px;"/><path id="Middle-Stripe-Rectangle1" serif:id="Middle Stripe Rectangle" d="M552.742,98.831l19.964,113.22c0.081,0.459 -0.226,0.898 -0.686,0.979l-114.008,20.103c-0.459,0.081 -0.898,-0.226 -0.979,-0.686l-19.964,-113.22c-0.081,-0.459 0.226,-0.898 0.686,-0.979l114.008,-20.103c0.459,-0.081 0.898,0.226 0.979,0.686Z" style="fill:#c8c8c8;stroke:#c8c8c8;stroke-width:1px;"/><path id="Right-Stripe-Rectangle1" serif:id="Right Stripe Rectangle" d="M841.924,47.84l19.964,113.22c0.081,0.459 -0.226,0.898 -0.686,0.979l-114.008,20.103c-0.459,0.081 -0.898,-0.226 -0.979,-0.686l-19.964,-113.22c-0.081,-0.459 0.226,-0.898 0.686,-0.979l114.008,-20.103c0.459,-0.081 0.898,0.226 0.979,0.686Z" style="fill:#c8c8c8;stroke:#c8c8c8;stroke-width:1px;"/></g><circle id="Clapper-Stick-Hinge" serif:id="Clapper Stick Hinge" cx="79.414" cy="304.532" r="27.273" style="fill:#c8c8c8;"/></g></svg>